<svg xmlns="http://www.w3.org/2000/svg" width="130" height="29" fill="none" version="2"><path fill="#ffffff" d="M121.023 22.697c-1.81 0-3.419-.413-4.828-1.24a9.029 9.029 0 0 1-3.252-3.42c-.782-1.453-1.173-3.073-1.173-4.861 0-1.833.391-3.453 1.173-4.862.805-1.408 1.878-2.514 3.219-3.319 1.341-.827 2.861-1.24 4.559-1.24 1.364 0 2.582.235 3.655.704a7.733 7.733 0 0 1 2.715 1.944 8.197 8.197 0 0 1 1.677 2.783 9.3 9.3 0 0 1 .603 3.353c0 .29-.011.592-.033.905a5.16 5.16 0 0 1-.134.872h-14.45v-3.018h12.304l-1.811 1.375c.224-1.095.146-2.068-.234-2.917-.358-.872-.917-1.553-1.677-2.045-.737-.514-1.609-.771-2.615-.771-1.005 0-1.899.257-2.682.771-.782.492-1.385 1.207-1.81 2.146-.425.916-.592 2.034-.503 3.352-.112 1.23.056 2.302.503 3.219.469.916 1.118 1.631 1.944 2.145.85.514 1.811.771 2.884.771 1.095 0 2.022-.245 2.782-.737a5.382 5.382 0 0 0 1.844-1.911l3.085 1.509c-.358.849-.917 1.62-1.677 2.313-.737.67-1.631 1.207-2.682 1.61-1.028.38-2.157.57-3.386.57Zm-12.254-.201c-1.9 0-3.375-.537-4.425-1.61-1.051-1.072-1.576-2.58-1.576-4.525V7.577h-3.185v-3.42h.503c.849 0 1.509-.246 1.978-.737.469-.492.704-1.163.704-2.012V0h3.788v4.157h4.124v3.42h-4.124v8.616c0 .626.101 1.162.302 1.61.201.424.525.76.972 1.005.447.224 1.029.335 1.744.335.179 0 .38-.01.603-.033a56.8 56.8 0 0 0 .637-.067v3.252c-.313.044-.659.09-1.039.134-.38.045-.715.067-1.006.067Zm-19.792.201c-1.23 0-2.313-.212-3.252-.637-.916-.447-1.632-1.05-2.146-1.81-.514-.783-.77-1.699-.77-2.75 0-.983.211-1.866.636-2.648.447-.782 1.129-1.442 2.045-1.978.917-.537 2.068-.916 3.453-1.14l6.303-1.04v2.985l-5.565.972c-1.006.179-1.743.503-2.213.972-.47.447-.704 1.028-.704 1.743 0 .693.257 1.263.771 1.71.537.425 1.218.637 2.045.637 1.029 0 1.922-.223 2.682-.67a4.763 4.763 0 0 0 1.81-1.777c.425-.76.638-1.598.638-2.515v-4.66c0-.894-.335-1.62-1.006-2.179-.648-.581-1.52-.872-2.615-.872-1.006 0-1.889.269-2.648.805a4.66 4.66 0 0 0-1.643 2.012L83.646 8.28c.335-.894.883-1.676 1.643-2.347a8.177 8.177 0 0 1 2.649-1.61 9.305 9.305 0 0 1 3.252-.57c1.43 0 2.693.27 3.788.806 1.118.536 1.978 1.285 2.582 2.246.625.938.938 2.034.938 3.285v12.204h-3.62v-3.286l.77.1a6.726 6.726 0 0 1-1.642 1.912 7.08 7.08 0 0 1-2.246 1.24c-.827.29-1.755.436-2.783.436Zm-15.902-.402V4.157h3.621v3.655l-.335-.537c.402-1.184 1.05-2.034 1.944-2.548.894-.536 1.967-.804 3.219-.804h1.106v3.453h-1.576c-1.251 0-2.268.39-3.05 1.173-.76.76-1.14 1.855-1.14 3.286v10.46h-3.789ZM52.292 29V4.157h3.62v3.755l-.435-.872a6.993 6.993 0 0 1 2.682-2.413c1.118-.582 2.392-.872 3.822-.872 1.721 0 3.263.413 4.627 1.24a8.77 8.77 0 0 1 3.252 3.386c.804 1.43 1.207 3.04 1.207 4.828 0 1.788-.403 3.398-1.207 4.828a9.102 9.102 0 0 1-3.219 3.42c-1.363.827-2.917 1.24-4.66 1.24-1.408 0-2.693-.29-3.855-.872a6.253 6.253 0 0 1-2.649-2.514l.603-.704V29h-3.788Zm9.32-9.823c1.073 0 2.023-.257 2.85-.771a5.376 5.376 0 0 0 1.944-2.112c.492-.917.738-1.945.738-3.085s-.246-2.157-.738-3.05a5.375 5.375 0 0 0-1.944-2.113c-.827-.514-1.777-.77-2.85-.77-1.05 0-2 .256-2.85.77a5.627 5.627 0 0 0-1.977 2.112c-.47.894-.705 1.911-.705 3.051 0 1.14.235 2.168.705 3.085a5.627 5.627 0 0 0 1.978 2.112c.849.514 1.799.77 2.85.77Zm-20.818 3.52c-1.363 0-2.559-.302-3.587-.905a6.555 6.555 0 0 1-2.414-2.582c-.559-1.117-.838-2.402-.838-3.855V4.157h3.788V15.02c0 .827.168 1.553.503 2.179a3.726 3.726 0 0 0 1.408 1.475c.604.335 1.297.503 2.08.503.804 0 1.508-.179 2.111-.537a3.673 3.673 0 0 0 1.408-1.508c.358-.648.537-1.408.537-2.28V4.157h3.755v18.138h-3.588V18.74l.403.47c-.425 1.117-1.129 1.977-2.112 2.58-.984.604-2.135.906-3.454.906Z"/><path fill="#8679FE" d="M10.169 1.264C18.005.253 26.752 5.591 24.476 12.511a15.82 15.82 0 0 1-.74 1.842c.788 4.883-1.07 8.1-6.164 9.616-5.413 1.61-9.585 1.815-12.299-2.404C1.594 19.718-1.067 16.46.57 12.51a53.5 53.5 0 0 1 .827-1.9c.323-3.729 2.43-8.528 8.773-9.347Z"/><path fill="#252223" d="m17.585 5.68 2.906 2.917-4.27 4.254 4.109 3.35v4.346h-4.118v-7.688L8.62 20.425l-2.905-2.916 7.738-7.71H5.692V5.68h11.893Z"/></svg>